<svg xmlns="http://www.w3.org/2000/svg" viewBox="0 0 64 64" width="512" height="512" color="#ffffff"><circle data-dc-tpl="133" cx="32" cy="32" r="31.5" fill="#000" data-om-id="c3dec50e:138"></circle><circle data-dc-tpl="134" cx="32" cy="32" r="29" fill="currentColor" fill-opacity="0.3" data-om-id="c3dec50e:139"></circle><circle data-dc-tpl="135" cx="32" cy="32" r="29" fill="none" stroke="currentColor" stroke-width="3" data-om-id="c3dec50e:140"></circle><path data-dc-tpl="136" d="M32 7L53 19V45L32 57L11 45V19z" fill="#000" data-om-id="c3dec50e:141"></path><path data-dc-tpl="137" d="M32 9.5L50.5 20L32 30.5L13.5 20z" fill="currentColor" stroke="#000" stroke-width="2" stroke-linejoin="round" data-om-id="c3dec50e:142"></path><path data-dc-tpl="138" d="M13.5 20L32 30.5V54.5L13.5 44z" fill="currentColor" stroke="#000" stroke-width="2" stroke-linejoin="round" data-om-id="c3dec50e:143"></path><path data-dc-tpl="139" d="M32 30.5L50.5 20V44L32 54.5z" fill="currentColor" stroke="#000" stroke-width="2" stroke-linejoin="round" data-om-id="c3dec50e:144"></path><g data-dc-tpl="140" transform="translate(32 20) scale(0.5 0.29) translate(-32 -32)" stroke="#000" stroke-width="4" fill="#000" data-om-id="c3dec50e:145"><path data-dc-tpl="141" d="M32 32L52 32M52 32l-5 -3.5v7z" transform="rotate(0 32 32)" data-om-id="c3dec50e:146"></path><path data-dc-tpl="142" d="M32 32L52 32M52 32l-5 -3.5v7z" transform="rotate(45 32 32)" data-om-id="c3dec50e:147"></path><path data-dc-tpl="143" d="M32 32L52 32M52 32l-5 -3.5v7z" transform="rotate(90 32 32)" data-om-id="c3dec50e:148"></path><path data-dc-tpl="144" d="M32 32L52 32M52 32l-5 -3.5v7z" transform="rotate(135 32 32)" data-om-id="c3dec50e:149"></path><path data-dc-tpl="145" d="M32 32L52 32M52 32l-5 -3.5v7z" transform="rotate(180 32 32)" data-om-id="c3dec50e:150"></path><path data-dc-tpl="146" d="M32 32L52 32M52 32l-5 -3.5v7z" transform="rotate(225 32 32)" data-om-id="c3dec50e:151"></path><path data-dc-tpl="147" d="M32 32L52 32M52 32l-5 -3.5v7z" transform="rotate(270 32 32)" data-om-id="c3dec50e:152"></path><path data-dc-tpl="148" d="M32 32L52 32M52 32l-5 -3.5v7z" transform="rotate(315 32 32)" data-om-id="c3dec50e:153"></path><circle data-dc-tpl="149" cx="32" cy="32" r="5" data-om-id="c3dec50e:154"></circle></g><g data-dc-tpl="150" transform="matrix(0.925 0.525 0 1.2 13.5 20) translate(1.5 1) scale(0.26)" data-om-id="c3dec50e:155"><path data-dc-tpl="151" d="M16 22C16 14 22 12 26 15C28 10 34 10 36 14C38 10 44 11 45 15C48 13 52 16 51 22L51 36C51 44 47 48 43 50L43 60H22V50C18 47 15 42 15 36Z" fill="#000" stroke="currentColor" stroke-width="2.5" stroke-linejoin="round" data-om-id="c3dec50e:156"></path><path data-dc-tpl="152" d="M26 15V27M36 14V27M45 15V27M16 27H51M22 50H43" fill="none" stroke="currentColor" stroke-width="2" stroke-linecap="round" data-om-id="c3dec50e:157"></path><path data-dc-tpl="153" d="M15 33C22 29 36 29 42 33C40 38 24 39 15 39z" fill="#000" stroke="currentColor" stroke-width="2.5" stroke-linejoin="round" data-om-id="c3dec50e:158"></path></g><g data-dc-tpl="154" transform="matrix(0.925 -0.525 0 1.2 32 30.5)" data-om-id="c3dec50e:159"><path data-dc-tpl="155" d="M11 2L5 11H9.5L6 19L14 8.5H9.5L12 2z" fill="#000" data-om-id="c3dec50e:160"></path></g></svg>