<svg xmlns="http://www.w3.org/2000/svg" viewBox="0 0 64 64" width="512" height="512" color="#ffffff"><circle data-dc-tpl="196" cx="32" cy="32" r="31.5" fill="#000" data-om-id="c3dec50e:201"></circle><circle data-dc-tpl="197" cx="32" cy="32" r="29" fill="currentColor" fill-opacity="0.3" data-om-id="c3dec50e:202"></circle><circle data-dc-tpl="198" cx="32" cy="32" r="29" fill="none" stroke="currentColor" stroke-width="3" data-om-id="c3dec50e:203"></circle><path data-dc-tpl="199" d="M16 22C16 14 22 12 26 15C28 10 34 10 36 14C38 10 44 11 45 15C48 13 52 16 51 22L51 36C51 44 47 48 43 50L43 60H22V50C18 47 15 42 15 36Z" fill="currentColor" stroke="#000" stroke-width="2.2" stroke-linejoin="round" data-om-id="c3dec50e:204"></path><path data-dc-tpl="200" d="M26 15V27M36 14V27M45 15V27M16 27H51M22 50H43" fill="none" stroke="#000" stroke-width="1.7600000000000002" stroke-linecap="round" data-om-id="c3dec50e:205"></path><path data-dc-tpl="201" d="M15 33C22 29 36 29 42 33C40 38 24 39 15 39z" fill="currentColor" stroke="#000" stroke-width="2.2" stroke-linejoin="round" data-om-id="c3dec50e:206"></path></svg>